<svg width="30" height="30" viewBox="0 0 30 30" fill="none" xmlns="http://www.w3.org/2000/svg">
<rect width="30" height="30" rx="4" fill="#919EAB" fill-opacity="0.18"/>
<path d="M22.5556 10.1666C20.2356 10.7889 17.5156 11.0555 15 11.0555C12.4844 11.0555 9.76444 10.7889 7.44444 10.1666L7 11.9444C8.65333 12.3889 10.5556 12.6822 12.3333 12.8333V24.3889H14.1111V19.0555H15.8889V24.3889H17.6667V12.8333C19.4444 12.6822 21.3467 12.3889 23 11.9444L22.5556 10.1666ZM15 10.1666C15.9778 10.1666 16.7778 9.36664 16.7778 8.38886C16.7778 7.41108 15.9778 6.61108 15 6.61108C14.0222 6.61108 13.2222 7.41108 13.2222 8.38886C13.2222 9.36664 14.0222 10.1666 15 10.1666Z" fill="#466697"/>
</svg>
