<svg width="56" height="25" viewBox="0 0 56 25" fill="none" xmlns="http://www.w3.org/2000/svg">
<g id="g4565">
<path id="path7" d="M26.6112 24.8611H25.922C25.73 24.4233 25.5941 23.969 25.5166 23.5062C25.4888 23.3455 25.4739 23.1834 25.472 23.0211C25.4553 22.7037 25.5132 22.3868 25.6423 22.0889C25.7095 21.9381 25.8122 21.8006 25.944 21.685C26.0758 21.5694 26.2339 21.478 26.4085 21.4167C26.587 21.3638 26.775 21.338 26.9639 21.3404C27.1586 21.3356 27.3524 21.3658 27.5326 21.4291C27.7127 21.4924 27.8754 21.5873 28.0099 21.7077C28.2401 21.9315 28.382 22.2116 28.4153 22.5082C28.4153 22.678 28.4153 22.8547 28.4153 23.0211C28.4047 23.4349 28.3325 23.846 28.2004 24.2443C28.1234 24.4522 28.0464 24.6636 27.9531 24.8611H27.2761C27.4439 24.4782 27.5621 24.0808 27.6288 23.676C27.6623 23.4809 27.6785 23.284 27.6775 23.0869C27.723 22.7068 27.625 22.3243 27.3977 21.9953C27.343 21.9376 27.2728 21.892 27.193 21.8624C27.1133 21.8328 27.0263 21.8202 26.9396 21.8256C26.5342 21.8256 26.3234 22.0369 26.2464 22.4424C26.2155 22.6562 26.2006 22.8715 26.2018 23.0869C26.2094 23.6948 26.3482 24.2963 26.6112 24.8611ZM31.5613 22.9171H32.2991C32.2991 22.9552 32.2991 23.0072 32.2991 23.073C32.3183 23.1652 32.3659 23.2513 32.437 23.3225C32.572 23.4805 32.6521 23.6679 32.6681 23.8631C32.6785 24.0526 32.6282 24.2409 32.5224 24.4076C32.4166 24.5744 32.2595 24.7132 32.068 24.8091C31.843 24.917 31.5881 24.9709 31.3302 24.965C31.1018 24.9867 30.871 24.9526 30.6643 24.8668C30.4577 24.7809 30.2838 24.6468 30.1626 24.4799C30.0186 24.2403 29.9501 23.9728 29.964 23.7037V21.4444H30.641V23.6101C30.6091 23.8737 30.6961 24.1377 30.8842 24.3482C31.0039 24.4173 31.1453 24.4536 31.2897 24.4522C31.4044 24.4555 31.5177 24.43 31.6157 24.3789C31.7137 24.3278 31.792 24.2533 31.841 24.1646C31.8925 24.0789 31.919 23.9837 31.918 23.8874C31.9006 23.7172 31.8322 23.5537 31.7194 23.4126C31.6748 23.3503 31.6261 23.2706 31.5653 23.177C31.5563 23.1428 31.5563 23.1073 31.5653 23.073C31.5567 23.0214 31.5553 22.969 31.5613 22.9171ZM33.1829 21.4444H33.9208C33.9129 21.4799 33.9129 21.5163 33.9208 21.5518C33.9221 21.6632 33.9532 21.7729 34.0115 21.8726C34.0698 21.9722 34.1538 22.0592 34.2573 22.127C34.3505 22.1929 34.46 22.2587 34.5978 22.3523C34.9712 22.5146 35.2603 22.7901 35.4086 23.125C35.4411 23.2852 35.4547 23.4477 35.4492 23.6101C35.4678 23.7979 35.4415 23.9869 35.3717 24.1656C35.302 24.3444 35.1904 24.5091 35.0437 24.6497C34.9152 24.7551 34.7632 24.8373 34.5967 24.8914C34.4303 24.9456 34.2528 24.9706 34.0748 24.965C33.8475 24.9826 33.6189 24.9451 33.4153 24.8569C33.2117 24.7687 33.0412 24.6332 32.9235 24.4661C32.7923 24.2753 32.7275 24.0565 32.737 23.8354C32.7364 23.7065 32.7569 23.5782 32.7978 23.4542H33.5356C33.5042 23.5681 33.4838 23.684 33.4748 23.8007C33.4685 23.9613 33.5164 24.1201 33.6127 24.2581C33.6646 24.3254 33.7358 24.3801 33.8196 24.4171C33.9034 24.4542 33.9968 24.4722 34.091 24.4695C34.4965 24.4695 34.7194 24.2062 34.7194 23.6794C34.7227 23.5425 34.7022 23.4058 34.6586 23.274C34.5136 23.0131 34.2769 22.7975 33.9816 22.6572L33.6451 22.4597C33.5494 22.4019 33.4611 22.3357 33.3816 22.2622C33.2458 22.1077 33.1757 21.9182 33.1829 21.7251C33.1752 21.6269 33.1779 21.5283 33.191 21.4305L33.1829 21.4444ZM36.0857 21.4444H36.8235C36.8175 21.48 36.8175 21.5162 36.8235 21.5518C36.8244 21.6619 36.8535 21.7704 36.9088 21.8698C36.9642 21.9692 37.0444 22.057 37.1438 22.127C37.2532 22.1929 37.3586 22.2587 37.4965 22.3523C37.8666 22.5123 38.1488 22.7896 38.283 23.125C38.3346 23.2841 38.3605 23.4485 38.36 23.6136C38.3801 23.8014 38.3545 23.9908 38.2847 24.1697C38.2149 24.3486 38.1025 24.5132 37.9546 24.6532C37.8254 24.7577 37.6733 24.8394 37.507 24.8935C37.3407 24.9476 37.1635 24.9731 36.9857 24.9685C36.7587 24.9833 36.5314 24.9446 36.3284 24.8566C36.1254 24.7686 35.9545 24.6347 35.8343 24.4695C35.7064 24.2778 35.6432 24.0595 35.6519 23.8389C35.6492 23.7099 35.6697 23.5813 35.7127 23.4577H36.4505C36.4172 23.5712 36.3968 23.6873 36.3897 23.8042C36.3813 23.965 36.4293 24.1243 36.5275 24.2616C36.5788 24.3286 36.6494 24.3832 36.7324 24.4202C36.8155 24.4572 36.9083 24.4754 37.0019 24.473C37.4073 24.473 37.6343 24.2096 37.6343 23.6829C37.6315 23.5408 37.6056 23.3997 37.5573 23.2636C37.4123 23.0028 37.1756 22.7871 36.8803 22.6468L36.5397 22.4493C36.4429 22.3941 36.3556 22.3276 36.2803 22.2518C36.1445 22.0973 36.0744 21.9078 36.0816 21.7147C36.0783 21.6198 36.0824 21.5249 36.0938 21.4305L36.0857 21.4444ZM39.4222 22.3765H38.7451C38.728 22.3128 38.7185 22.2478 38.7168 22.1825C38.7081 22.0276 38.7546 21.8741 38.8501 21.7423C38.9457 21.6105 39.0858 21.5066 39.2519 21.4444C39.4269 21.3794 39.6166 21.3486 39.8073 21.3543C40.0733 21.3406 40.3359 21.4109 40.5452 21.5518C40.6423 21.6339 40.7184 21.7323 40.7687 21.8409C40.8189 21.9495 40.8422 22.0658 40.8371 22.1825C40.8371 22.2344 40.8371 22.3003 40.8371 22.4042C40.8307 22.4781 40.8307 22.5522 40.8371 22.626C40.8396 22.7055 40.8661 22.7831 40.9141 22.8513C40.9792 22.9178 41.0511 22.9793 41.129 23.0349C41.2992 23.1389 41.3763 23.1909 41.3925 23.2047C41.4877 23.2874 41.5615 23.3862 41.609 23.4949C41.6565 23.6036 41.6767 23.7196 41.6682 23.8354C41.6822 24.0418 41.6222 24.247 41.4962 24.4235C41.3701 24.6 41.184 24.7393 40.9627 24.823C40.7105 24.9272 40.4318 24.976 40.1519 24.965C39.885 24.9905 39.6149 24.9567 39.3678 24.8669C39.1206 24.777 38.9048 24.6342 38.7411 24.4522C38.6181 24.2929 38.5531 24.106 38.5546 23.9151C38.5445 23.7325 38.5936 23.551 38.6967 23.3907C38.7997 23.2305 38.9526 23.0978 39.1384 23.0072C39.4429 22.8545 39.787 22.7687 40.1398 22.7577V22.2726C40.1398 21.985 40.0465 21.8394 39.8316 21.8394C39.7767 21.8331 39.7208 21.8378 39.6682 21.853C39.6157 21.8682 39.568 21.8935 39.5287 21.927C39.4895 21.9605 39.4599 22.0013 39.4421 22.0462C39.4243 22.0911 39.4189 22.1389 39.4262 22.1859C39.4174 22.2447 39.4188 22.3042 39.4303 22.3627L39.4222 22.3765ZM39.2681 23.8631C39.2613 23.9509 39.2804 24.0388 39.3236 24.1187C39.3668 24.1986 39.4328 24.268 39.5154 24.3205C39.6797 24.4344 39.8881 24.4912 40.0992 24.4799C40.2952 24.4915 40.4899 24.445 40.6506 24.3482C40.7331 24.298 40.7992 24.2306 40.8425 24.1523C40.8858 24.074 40.9048 23.9876 40.8979 23.9012C40.9024 23.813 40.884 23.725 40.844 23.6435C40.8041 23.562 40.7436 23.4891 40.6668 23.43C40.5066 23.3086 40.2967 23.2463 40.083 23.2567C39.9497 23.2505 39.8166 23.2726 39.6957 23.321C39.5748 23.3693 39.4697 23.4425 39.3897 23.5339C39.3165 23.6272 39.277 23.7369 39.2762 23.8492L39.2681 23.8631ZM42.6249 22.5082H41.9317C41.9218 22.438 41.9218 22.367 41.9317 22.2968C41.9271 22.1244 41.9813 21.9545 42.0879 21.808C42.1945 21.6616 42.3487 21.5448 42.5317 21.4721C42.7518 21.3788 42.9956 21.3336 43.2411 21.3404C44.1006 21.3404 44.5304 21.7597 44.5304 22.626V23.8631C44.5401 24.0102 44.5137 24.1574 44.453 24.2952C44.3922 24.433 44.2984 24.5585 44.1776 24.6636C44.0503 24.7647 43.9001 24.8425 43.7362 24.8919C43.5723 24.9414 43.3983 24.9616 43.2249 24.9512C42.9725 24.9713 42.7185 24.9318 42.4905 24.8371C42.2625 24.7424 42.0692 24.5961 41.9317 24.4141C41.8056 24.2267 41.7425 24.0133 41.7492 23.7973C41.7401 23.6877 41.7401 23.5777 41.7492 23.4681H42.5601C42.5081 23.5854 42.482 23.7099 42.483 23.8354C42.4753 23.9988 42.5405 24.1586 42.6655 24.2824C42.7292 24.3427 42.8076 24.3904 42.8951 24.4221C42.9826 24.4538 43.0772 24.4688 43.1722 24.4661C43.6182 24.4661 43.833 24.2443 43.833 23.8077V22.4216C43.833 22.0265 43.6344 21.829 43.2371 21.829C43.0743 21.8232 42.915 21.8702 42.7911 21.9607C42.7319 22.003 42.6844 22.056 42.6521 22.1159C42.6198 22.1759 42.6036 22.2412 42.6047 22.3072C42.6032 22.3746 42.61 22.442 42.6249 22.5082ZM45.5439 22.3107V23.1008C45.7906 22.9798 46.0703 22.9165 46.3547 22.9171C46.5631 22.9115 46.7689 22.958 46.9468 23.0509C47.1247 23.1439 47.2669 23.2792 47.3561 23.4403C47.4443 23.602 47.49 23.7783 47.4898 23.9567C47.496 24.1317 47.4446 24.3048 47.3414 24.4561C47.2382 24.6074 47.0873 24.7309 46.9061 24.8126C46.6859 24.9169 46.4358 24.9661 46.1844 24.9547C45.9544 24.9715 45.7233 24.9353 45.5152 24.85C45.307 24.7647 45.1293 24.6333 45.0006 24.4695C44.8745 24.3115 44.8093 24.1237 44.8141 23.9324V22.2241C44.7921 22.1147 44.8012 22.0025 44.8405 21.8968C44.8797 21.7911 44.9481 21.695 45.0399 21.6166C45.1316 21.5381 45.2441 21.4797 45.3678 21.4461C45.4915 21.4125 45.6227 21.4048 45.7506 21.4236C45.9783 21.436 46.2046 21.4626 46.4277 21.5033C46.5392 21.5264 46.6534 21.5392 46.7682 21.5414C46.9561 21.5468 47.1419 21.5059 47.3034 21.4236V22.0161C47.1437 22.0761 46.971 22.1068 46.7966 22.1062C46.6458 22.1076 46.4955 22.0901 46.3506 22.0543C46.3506 22.0543 46.2574 22.0543 46.0912 22.0023C46.0014 21.9802 45.9088 21.9674 45.8155 21.9642C45.771 21.9603 45.7261 21.9682 45.6869 21.9867C45.6478 22.0053 45.6162 22.0337 45.5966 22.0681C45.5548 22.144 45.5326 22.2268 45.5317 22.3107H45.5439ZM45.5439 23.9393C45.5418 24.0072 45.5557 24.0748 45.585 24.1379C45.6143 24.201 45.6582 24.2584 45.7141 24.3067C45.7663 24.36 45.8324 24.4021 45.907 24.4298C45.9816 24.4575 46.0627 24.4699 46.1439 24.4661C46.2249 24.4686 46.3055 24.4556 46.3799 24.428C46.4542 24.4004 46.5204 24.3589 46.5736 24.3067C46.6296 24.2584 46.6735 24.201 46.7028 24.1379C46.732 24.0748 46.746 24.0072 46.7439 23.9393C46.7472 23.8462 46.7202 23.7541 46.6658 23.6733C46.6114 23.5925 46.5317 23.5262 46.4358 23.4819C46.3495 23.4334 46.247 23.4103 46.1439 23.4161C46.0643 23.4102 45.9842 23.4199 45.9097 23.4445C45.8352 23.4691 45.7683 23.508 45.7141 23.5582C45.6542 23.6108 45.6071 23.6732 45.5758 23.7417C45.5445 23.8101 45.5295 23.8832 45.5317 23.9567L45.5439 23.9393ZM47.9115 22.5533H48.6493C48.4232 22.8272 48.3002 23.1536 48.2966 23.4889C48.2796 23.6668 48.3264 23.845 48.4306 23.9997C48.5349 24.1545 48.6918 24.2784 48.8804 24.3552C49.1023 24.439 49.3433 24.4793 49.5858 24.473C50.202 24.473 50.5872 24.3032 50.7372 23.9463C50.799 23.8261 50.8307 23.6963 50.8304 23.5651C50.86 23.3789 50.8194 23.1894 50.7144 23.0243C50.6094 22.8591 50.4455 22.7269 50.2466 22.6468C50.3891 22.7991 50.4651 22.989 50.4615 23.1839C50.4637 23.2748 50.4415 23.3648 50.3965 23.4471C50.3515 23.5295 50.285 23.6018 50.202 23.6587C50.0328 23.7641 49.8276 23.8189 49.6182 23.8146C49.4713 23.8225 49.3245 23.7977 49.1923 23.7424C49.0601 23.6871 48.947 23.6033 48.8642 23.4993C48.7888 23.4031 48.7505 23.2892 48.7547 23.1735C48.7448 23.0397 48.7861 22.9068 48.8724 22.7949C48.9587 22.683 49.0853 22.5982 49.2331 22.5533C49.0871 22.5071 48.9621 22.4225 48.8761 22.3116C48.7901 22.2007 48.7476 22.0693 48.7547 21.9364C48.753 21.8198 48.7956 21.7058 48.8759 21.6114C48.9563 21.5171 49.0702 21.4476 49.2007 21.4132C49.3363 21.3638 49.4832 21.3413 49.6304 21.3474C49.875 21.3345 50.1163 21.4 50.3074 21.531C50.3818 21.5758 50.4429 21.6349 50.4859 21.7035C50.5288 21.7721 50.5524 21.8483 50.5547 21.926C50.556 22.0246 50.5284 22.1218 50.4746 22.2089C50.4208 22.296 50.3425 22.3703 50.2466 22.425C50.4742 22.4322 50.6965 22.486 50.8948 22.5819C51.093 22.6778 51.2614 22.8129 51.3858 22.976C51.5119 23.1583 51.5752 23.3673 51.5683 23.579C51.5833 23.824 51.5147 24.0675 51.3708 24.2797C51.2268 24.492 51.0137 24.6639 50.7575 24.7745C50.4176 24.9125 50.0426 24.9757 49.6669 24.9581C49.1586 24.9803 48.6531 24.8807 48.2074 24.6705C47.9965 24.5537 47.8257 24.391 47.7124 24.1992C47.5992 24.0075 47.5475 23.7934 47.5628 23.579C47.557 23.2148 47.6723 22.8567 47.8953 22.5463L47.9115 22.5533ZM49.3264 22.0958C49.3249 22.1322 49.3321 22.1684 49.3474 22.2024C49.3627 22.2363 49.3859 22.2673 49.4155 22.2934C49.4793 22.3438 49.5603 22.3754 49.6466 22.3835C49.7375 22.383 49.8253 22.3547 49.8939 22.3038C49.9556 22.2475 49.9891 22.1729 49.9872 22.0958C49.9881 22.0592 49.9803 22.0229 49.9643 21.9889C49.9482 21.9549 49.9243 21.9241 49.8939 21.8983C49.8614 21.8711 49.8226 21.85 49.7801 21.8363C49.7375 21.8225 49.6921 21.8165 49.6466 21.8186C49.5613 21.822 49.4798 21.8501 49.4155 21.8983C49.3845 21.9226 49.3595 21.952 49.3421 21.9848C49.3247 22.0175 49.3152 22.0529 49.3142 22.0889L49.3264 22.0958ZM49.2777 23.08C49.2768 23.1166 49.2846 23.153 49.3006 23.1869C49.3166 23.2209 49.3406 23.2517 49.371 23.2775C49.4002 23.3055 49.4357 23.3282 49.4754 23.3443C49.5151 23.3603 49.5581 23.3695 49.602 23.371C49.6459 23.3695 49.689 23.3603 49.7287 23.3443C49.7684 23.3282 49.8039 23.3055 49.8331 23.2775C49.8635 23.2517 49.8874 23.2209 49.9035 23.1869C49.9195 23.153 49.9273 23.1166 49.9264 23.08C49.9273 23.0434 49.9195 23.007 49.9035 22.973C49.8874 22.9391 49.8635 22.9083 49.8331 22.8824C49.8027 22.8569 49.7665 22.837 49.7268 22.8239C49.6871 22.8108 49.6446 22.8048 49.602 22.8062C49.5595 22.8048 49.517 22.8108 49.4773 22.8239C49.4375 22.837 49.4013 22.8569 49.371 22.8824C49.3393 22.9066 49.3137 22.9359 49.2956 22.9686C49.2775 23.0013 49.2673 23.0369 49.2655 23.073L49.2777 23.08ZM54.0575 23.1735H53.3075V22.2518C53.3112 22.15 53.2787 22.0497 53.2142 21.9642C53.1848 21.9211 53.1419 21.8859 53.0903 21.8627C53.0387 21.8394 52.9805 21.8289 52.9223 21.8325C52.8583 21.8315 52.7951 21.8443 52.7384 21.8698C52.6817 21.8952 52.6334 21.9324 52.598 21.978C52.5195 22.0688 52.4821 22.1808 52.4926 22.2934V23.8285C52.5021 24.1845 52.5844 24.5363 52.7359 24.868H52.0588C51.8996 24.6157 51.8004 24.3389 51.7669 24.0537C51.7669 23.9359 51.7669 23.8146 51.7669 23.6725V22.3973C51.7387 22.2061 51.7799 22.0121 51.8851 21.8416C51.9902 21.6712 52.1542 21.5325 52.3548 21.4444C52.5249 21.3694 52.7149 21.3336 52.9061 21.3404C53.0507 21.3363 53.1947 21.3575 53.3293 21.4028C53.4639 21.4481 53.5861 21.5165 53.6886 21.6038C53.7955 21.5148 53.9226 21.4455 54.062 21.4002C54.2015 21.3549 54.3504 21.3346 54.4994 21.3404C54.6877 21.3314 54.8752 21.3671 55.0412 21.4435C55.2072 21.52 55.3452 21.6342 55.4399 21.7736C55.5568 21.9634 55.6141 22.176 55.6062 22.3904V23.6656C55.6177 24.0795 55.512 24.4897 55.298 24.8611H54.6251C54.733 24.6231 54.8091 24.3755 54.8521 24.123C54.8521 24.0329 54.8521 23.9289 54.8521 23.8215V22.2864C54.8626 22.1739 54.8252 22.0619 54.7467 21.9711C54.7113 21.9255 54.663 21.8883 54.6063 21.8628C54.5496 21.8374 54.4864 21.8246 54.4224 21.8256C54.3642 21.822 54.306 21.8324 54.2544 21.8557C54.2028 21.879 54.1599 21.9142 54.1305 21.9572C54.066 22.0428 54.0335 22.1431 54.0372 22.2448L54.0575 23.1735ZM0.94876 22.5151H0.259564C0.249708 22.4449 0.249708 22.374 0.259564 22.3038C0.25442 22.1312 0.308498 21.9612 0.415125 21.8146C0.521752 21.6681 0.676258 21.5514 0.859569 21.479C1.08342 21.3842 1.33155 21.3389 1.5812 21.3474C2.42445 21.3474 2.85824 21.7666 2.85824 22.633V23.87C2.86221 24.0146 2.83153 24.1584 2.76808 24.2925C2.70464 24.4266 2.60977 24.5481 2.48932 24.6497C2.36244 24.7514 2.21226 24.8295 2.04827 24.879C1.88427 24.9285 1.71005 24.9483 1.5366 24.9373C1.28479 24.9571 1.03145 24.9175 0.804142 24.8228C0.576833 24.7281 0.384268 24.582 0.247402 24.4002C0.119955 24.2132 0.0554157 23.9998 0.0609109 23.7834C0.0533612 23.6729 0.0642828 23.5621 0.0933445 23.4542H0.867679C0.817759 23.572 0.791709 23.6962 0.79065 23.8215C0.784443 23.9853 0.851082 24.1451 0.977142 24.2685C1.04069 24.329 1.11903 24.3769 1.2066 24.4086C1.29418 24.4403 1.38885 24.4552 1.4839 24.4522C1.92986 24.4522 2.14472 24.2304 2.14472 23.7938V22.4077C2.14472 22.0127 1.94607 21.8152 1.54471 21.8152C1.46641 21.8113 1.388 21.821 1.31416 21.8436C1.24033 21.8662 1.17259 21.9013 1.11498 21.9468C1.05687 21.9897 1.01044 22.043 0.978923 22.1029C0.947411 22.1627 0.931584 22.2277 0.932546 22.2934C0.929416 22.3651 0.933485 22.437 0.944708 22.5082L0.94876 22.5151ZM5.54611 21.4374H6.23531C6.23675 21.5552 6.20554 21.6715 6.14423 21.7769C6.08292 21.8823 5.99326 21.9738 5.8826 22.0439C5.64744 22.1716 5.394 22.2729 5.12854 22.3453C4.72313 22.477 4.46772 22.5671 4.36231 22.6087C4.11664 22.7108 3.90893 22.8691 3.76231 23.0661C3.92558 22.961 4.12555 22.9061 4.32988 22.9102C4.46989 22.909 4.60832 22.9356 4.73426 22.9879C4.86019 23.0402 4.97018 23.1168 5.05557 23.2116C5.16596 23.1087 5.3019 23.0282 5.45343 22.9761C5.60496 22.9239 5.76822 22.9014 5.93125 22.9102C6.1161 22.9027 6.29918 22.9438 6.45578 23.0281C6.61238 23.1124 6.73495 23.2357 6.80694 23.3814C6.89151 23.5572 6.93291 23.7459 6.92856 23.9359C6.92304 24.2743 6.78774 24.6017 6.54342 24.868H5.80557C6.03547 24.5693 6.17479 24.2263 6.21098 23.87C6.21723 23.7593 6.18477 23.6496 6.11774 23.5547C6.08656 23.5056 6.0402 23.4648 5.98372 23.4367C5.92724 23.4086 5.86281 23.3942 5.79747 23.3953C5.74315 23.395 5.68932 23.4041 5.63917 23.422C5.58903 23.4398 5.5436 23.4661 5.50557 23.4993C5.43608 23.5689 5.39735 23.6572 5.39611 23.7488V24.1299H4.71908V23.7488C4.72099 23.6993 4.70955 23.6501 4.68565 23.6051C4.66174 23.56 4.62602 23.5202 4.58124 23.4889C4.53804 23.4555 4.48738 23.4301 4.43233 23.414C4.37727 23.3979 4.31897 23.3916 4.26096 23.3953C4.1904 23.393 4.12037 23.4065 4.0578 23.4345C3.99522 23.4624 3.94228 23.5039 3.9042 23.5547C3.82085 23.6559 3.77817 23.7775 3.78258 23.9012C3.78759 24.2481 3.9101 24.5863 4.13528 24.875H3.39744C3.17538 24.5231 3.05448 24.1311 3.04473 23.7314C3.03034 23.5202 3.06562 23.3086 3.14848 23.1093C3.23134 22.9099 3.3601 22.7267 3.52717 22.5706C3.73322 22.4036 3.9738 22.2708 4.23664 22.179C4.40285 22.1132 4.71097 22.0057 5.15692 21.8325C5.25114 21.7931 5.33432 21.7368 5.40079 21.6674C5.46725 21.598 5.51543 21.5172 5.54206 21.4305L5.54611 21.4374ZM9.41778 23.1701H8.66372V22.2483C8.66864 22.1469 8.63754 22.0467 8.57452 21.9607C8.54513 21.9176 8.5022 21.8825 8.4506 21.8592C8.39901 21.8359 8.34082 21.8255 8.28263 21.829C8.21862 21.828 8.15535 21.8409 8.09867 21.8663C8.04198 21.8917 7.99371 21.929 7.95831 21.9746C7.88557 22.0679 7.84743 22.1778 7.84884 22.2899V23.825C7.85975 24.1812 7.94344 24.533 8.09614 24.8646H7.41911C7.25991 24.6122 7.16071 24.3355 7.12721 24.0502C7.12721 23.9324 7.12721 23.8111 7.12721 23.6691V22.3939C7.1014 22.203 7.1447 22.01 7.25127 21.8408C7.35784 21.6716 7.52254 21.5345 7.72317 21.4478C7.90008 21.3717 8.09696 21.3359 8.2948 21.3439C8.43689 21.34 8.57838 21.3614 8.71028 21.4067C8.84219 21.4521 8.96163 21.5204 9.06102 21.6072C9.16791 21.5183 9.29502 21.449 9.43448 21.4037C9.57395 21.3584 9.7228 21.338 9.87184 21.3439C10.0595 21.3351 10.2464 21.3709 10.4117 21.4474C10.577 21.5239 10.7143 21.638 10.8083 21.777C10.9286 21.9659 10.9874 22.1789 10.9786 22.3939V23.6691C10.9902 24.083 10.8845 24.4931 10.6705 24.8646H9.99346C10.1043 24.6272 10.1818 24.3794 10.2245 24.1265C10.2245 24.0364 10.2245 23.9324 10.2245 23.825V22.2899C10.2351 22.1774 10.1976 22.0654 10.1191 21.9746C10.0837 21.929 10.0355 21.8917 9.97877 21.8663C9.92209 21.8409 9.85882 21.828 9.79481 21.829C9.73662 21.8255 9.67843 21.8359 9.62684 21.8592C9.57524 21.8825 9.53232 21.9176 9.50292 21.9607C9.43847 22.0463 9.40596 22.1466 9.40967 22.2483L9.41778 23.1701ZM11.9556 22.477H11.2624V22.3835C11.2494 22.2004 11.2973 22.018 11.4007 21.8573C11.504 21.6967 11.6585 21.5643 11.8462 21.4756C12.0721 21.3708 12.3274 21.3217 12.584 21.3335C12.8145 21.3135 13.0471 21.344 13.26 21.4222C13.4728 21.5004 13.6587 21.6237 13.8003 21.7805C13.9032 21.9076 13.957 22.0591 13.9543 22.2137C13.9617 22.3701 13.9123 22.5247 13.8129 22.6562C13.7135 22.7878 13.5688 22.8898 13.3989 22.9483C13.5862 23.0096 13.7434 23.1237 13.8444 23.2718C13.9454 23.4199 13.9842 23.5931 13.9543 23.7626C13.9727 23.9595 13.9294 24.1569 13.829 24.3348C13.7285 24.5126 13.5745 24.6644 13.3827 24.7745C13.1536 24.8966 12.8862 24.9559 12.6165 24.9443C12.372 24.9617 12.1265 24.9235 11.905 24.8334C11.6835 24.7433 11.4939 24.6046 11.3556 24.4314C11.2169 24.2481 11.1476 24.0327 11.157 23.8146C11.1564 23.6986 11.1659 23.5828 11.1854 23.4681H11.9962C11.9373 23.5766 11.9068 23.6949 11.907 23.8146C11.9006 23.982 11.9655 24.1457 12.0894 24.2755C12.1553 24.3372 12.2363 24.3858 12.3268 24.4175C12.4172 24.4493 12.5148 24.4635 12.6124 24.4591C12.7075 24.4622 12.8019 24.4432 12.8854 24.4042C12.9689 24.3651 13.0385 24.3075 13.0867 24.2374C13.1878 24.0945 13.2372 23.9294 13.2286 23.7626C13.2286 23.4993 13.1192 23.3295 12.9367 23.2775C12.881 23.264 12.8241 23.2547 12.7665 23.2498H12.5962V22.7646H12.7827C12.8461 22.7657 12.9089 22.7528 12.9649 22.7274C13.021 22.7019 13.0685 22.6646 13.103 22.6191C13.1847 22.5342 13.2292 22.4276 13.2286 22.3176C13.2336 22.2256 13.207 22.1343 13.1523 22.0549C13.0976 21.9756 13.0171 21.9115 12.9205 21.8706C12.8235 21.8342 12.7183 21.8164 12.6124 21.8186C12.1665 21.8256 11.9516 22.0473 11.9516 22.4839L11.9556 22.477ZM14.9962 23.9324C14.9924 23.9993 15.004 24.0661 15.0305 24.1292C15.0569 24.1922 15.0976 24.2502 15.1503 24.2997C15.205 24.3504 15.2715 24.3907 15.3455 24.4182C15.4195 24.4456 15.4993 24.4596 15.58 24.4591C15.6618 24.4627 15.7434 24.4502 15.8186 24.4225C15.8938 24.3949 15.9606 24.3529 16.0138 24.2997C16.0713 24.2527 16.116 24.1954 16.1447 24.1319C16.1735 24.0684 16.1855 24.0003 16.18 23.9324C16.1863 23.8405 16.1623 23.7488 16.1107 23.668C16.0591 23.5871 15.982 23.5203 15.8881 23.475C15.7961 23.4259 15.6883 23.4028 15.58 23.4092C15.5008 23.4063 15.4217 23.4174 15.3478 23.4418C15.2738 23.4663 15.2066 23.5035 15.1503 23.5512C15.0939 23.6065 15.0508 23.6708 15.0237 23.7404C14.9965 23.81 14.9858 23.8835 14.9922 23.9567L14.9962 23.9324ZM14.9962 22.3038V23.0938C15.2412 22.9692 15.522 22.9056 15.807 22.9102C16.0133 22.9046 16.2169 22.9513 16.3922 23.0444C16.5675 23.1375 16.7067 23.2729 16.7922 23.4334C16.8955 23.5898 16.9487 23.7667 16.9462 23.9463C16.9501 24.121 16.8977 24.2932 16.7947 24.4442C16.6918 24.5951 16.5422 24.719 16.3625 24.8022C16.1417 24.9053 15.8921 24.9544 15.6408 24.9443C15.4061 24.9618 15.1701 24.9262 14.9567 24.841C14.7432 24.7558 14.5597 24.6241 14.4246 24.4591C14.3118 24.2966 14.2529 24.111 14.2543 23.922V22.2241C14.2329 22.1157 14.2418 22.0046 14.2805 21.8999C14.3192 21.7951 14.3864 21.6997 14.4767 21.6215C14.567 21.5433 14.6777 21.4846 14.7998 21.4502C14.9218 21.4158 15.0517 21.4067 15.1787 21.4236C15.4064 21.4356 15.6327 21.4622 15.8557 21.5033C15.9714 21.5266 16.0896 21.5393 16.2084 21.5414C16.3925 21.5467 16.5743 21.5058 16.7314 21.4236V22.0161C16.5757 22.0755 16.4072 22.1062 16.2368 22.1062C16.0859 22.1085 15.9355 22.091 15.7908 22.0543C15.6978 22.0418 15.6057 22.0245 15.5151 22.0023C15.4312 21.9791 15.3438 21.9663 15.2557 21.9642C15.2097 21.9613 15.1636 21.9696 15.1228 21.9879C15.0819 22.0063 15.0479 22.0341 15.0246 22.0681C15.0013 22.1474 14.9904 22.229 14.9922 22.3107L14.9962 22.3038ZM16.8408 21.4236H17.5341C17.5248 21.4764 17.5248 21.5302 17.5341 21.583C17.5322 21.6042 17.5358 21.6255 17.5445 21.6454C17.5533 21.6652 17.567 21.6833 17.5848 21.6981C17.6026 21.713 17.6239 21.7243 17.6474 21.7314C17.6709 21.7384 17.6958 21.741 17.7206 21.7389C17.8596 21.7147 17.9844 21.6498 18.0733 21.5553C18.1503 21.4894 18.2111 21.4513 18.2273 21.4374C18.3208 21.3687 18.4405 21.3317 18.5638 21.3335C18.6503 21.3286 18.7363 21.3475 18.8092 21.3874C18.8822 21.4273 18.9382 21.4861 18.9692 21.5553C19.1563 21.4073 19.4037 21.3278 19.6584 21.3335C19.8012 21.3267 19.9435 21.3523 20.0709 21.4077C20.1984 21.4631 20.3064 21.5462 20.3841 21.6488C20.4621 21.7522 20.5043 21.8723 20.5057 21.9953V23.624C20.5345 23.86 20.4796 24.0979 20.348 24.3068C20.2164 24.5157 20.0142 24.6859 19.7679 24.7953C19.515 24.8978 19.2368 24.9466 18.9571 24.9373C18.6746 24.965 18.3889 24.9194 18.1373 24.8062C17.8856 24.6931 17.6796 24.5178 17.5463 24.3032C17.4381 24.1204 17.3799 23.9189 17.376 23.7141C17.3723 23.5688 17.3873 23.4235 17.4206 23.2809H18.2314C18.1671 23.4186 18.1368 23.566 18.1422 23.7141C18.1327 23.847 18.1681 23.9795 18.2443 24.0956C18.3205 24.2118 18.4343 24.3067 18.5719 24.369C18.6951 24.4301 18.8349 24.4624 18.9773 24.4626C19.0906 24.4675 19.2036 24.4501 19.3077 24.4116C19.4117 24.3731 19.504 24.3147 19.5774 24.2408C19.7195 24.0932 19.7905 23.9049 19.776 23.7141V22.1651C19.776 21.9399 19.699 21.8186 19.5165 21.8186C19.3341 21.8186 19.2246 21.9226 19.2246 22.134V22.7265H18.5314V22.1617C18.5314 21.9226 18.4706 21.8152 18.3652 21.8152C18.2598 21.8152 18.2233 21.8671 18.1341 21.9607C18.0584 22.06 17.97 22.1518 17.8706 22.2344C17.7516 22.3037 17.6088 22.3366 17.4652 22.328C17.3556 22.3311 17.2471 22.3081 17.1519 22.2616C17.0567 22.2151 16.9785 22.1469 16.926 22.0647C16.8448 21.9501 16.8066 21.8171 16.8165 21.6835C16.8136 21.5988 16.8204 21.5141 16.8368 21.4305L16.8408 21.4236ZM20.7328 23.572H21.2233C21.0236 23.4255 20.8668 23.2411 20.7655 23.0335C20.6641 22.8259 20.621 22.6009 20.6395 22.3765C20.6131 22.1947 20.6483 22.0101 20.741 21.8449C20.8337 21.6796 20.98 21.5406 21.1625 21.4444C21.3129 21.3712 21.4842 21.3352 21.6571 21.3404C21.7885 21.3368 21.9187 21.3627 22.0347 21.4156C22.1507 21.4685 22.2484 21.5465 22.3179 21.6419C22.3895 21.5457 22.4892 21.4673 22.6073 21.4144C22.7254 21.3615 22.8577 21.336 22.9909 21.3404C23.1215 21.3321 23.2521 21.356 23.3672 21.4095C23.4822 21.463 23.5768 21.5437 23.6396 21.6419C23.7355 21.5387 23.8596 21.4572 24.0009 21.4046C24.1423 21.3521 24.2967 21.33 24.4504 21.3404C24.6152 21.3326 24.7791 21.3654 24.9228 21.4348C25.0665 21.5042 25.184 21.6073 25.2612 21.732C25.3556 21.877 25.4032 22.0408 25.399 22.2067C25.392 22.4461 25.3286 22.6818 25.2126 22.8998H24.4625C24.5764 22.7034 24.6387 22.4882 24.645 22.2691C24.645 21.9676 24.5234 21.8221 24.2761 21.8221C24.2307 21.8206 24.1855 21.8269 24.143 21.8406C24.1005 21.8543 24.0617 21.8751 24.0288 21.9018C23.9793 21.9681 23.9526 22.0449 23.9517 22.1236V22.7161H23.2625V22.1236C23.2625 21.9156 23.1693 21.8221 22.9706 21.8221C22.772 21.8221 22.6463 21.9156 22.6463 22.1236V22.7161H21.949V22.1651C21.949 21.926 21.8558 21.8186 21.6693 21.8186C21.4828 21.8186 21.3774 22.0023 21.3774 22.3557C21.3548 22.6258 21.4253 22.8957 21.5801 23.1319C21.7787 23.3814 22.2085 23.5408 22.8409 23.6171H22.9787C23.2544 23.6552 23.4531 23.6829 23.5747 23.7106C23.8145 23.7447 24.0477 23.8065 24.268 23.8943C24.4891 23.9721 24.6794 24.1026 24.816 24.2704C24.9526 24.4382 25.0297 24.636 25.0382 24.8403H24.1747C24.1139 24.4591 23.7693 24.2339 23.1328 24.1473C22.7919 24.1048 22.4475 24.0862 22.1031 24.0918H20.7328V23.572Z" fill="#006EE5"/>
<path id="path9" d="M4.32572 4.15636H6.29602C6.25812 4.29366 6.24176 4.43466 6.24737 4.57565C6.3008 4.82309 6.42785 5.0546 6.61629 5.24791C6.97418 5.66633 7.18767 6.16214 7.23251 6.67904C7.2538 7.17986 7.11384 7.67606 6.82789 8.11356C6.54194 8.55106 6.12097 8.91308 5.61087 9.16015C5.02735 9.46168 4.35461 9.61325 3.67301 9.59676C2.16894 9.59676 1.1392 9.16014 0.583788 8.3077C0.208735 7.67365 0.023474 6.97001 0.0445916 6.25975V0.268382H1.86083V6.0761C1.86083 7.04636 2.07569 7.70475 2.50543 8.02009C2.81408 8.2176 3.19497 8.31466 3.57977 8.29384C3.88265 8.30522 4.18278 8.24036 4.44294 8.10731C4.7031 7.97426 4.91185 7.77886 5.0433 7.54535C5.19005 7.32115 5.26422 7.06757 5.25817 6.81072C5.21291 6.35676 5.02678 5.92134 4.71897 5.54938C4.59735 5.36572 4.47167 5.15435 4.31356 4.93257C4.27965 4.84274 4.25922 4.74959 4.25275 4.65536C4.25699 4.48733 4.28144 4.32011 4.32572 4.15636ZM8.61496 0.268382H10.5974C10.5676 0.35383 10.5525 0.442562 10.5528 0.53174C10.5519 0.825821 10.6304 1.11612 10.7823 1.37999C10.9342 1.64386 11.1553 1.87418 11.4285 2.05297C11.7217 2.27151 12.0349 2.46966 12.365 2.64553C13.5042 3.30392 14.1934 3.98657 14.4407 4.72466C14.5583 5.14217 14.6155 5.57044 14.611 5.99986C14.611 7.23348 14.2421 8.15523 13.5042 8.77204C13.1652 9.04944 12.7644 9.26572 12.3256 9.408C11.8869 9.55028 11.4191 9.61565 10.9501 9.60023C10.3505 9.63248 9.75192 9.52473 9.21845 9.2885C8.68499 9.05227 8.23674 8.69647 7.92171 8.25919C7.56797 7.75583 7.39198 7.17581 7.41495 6.58895C7.42326 6.25155 7.48046 5.91634 7.58522 5.59096H9.5393C9.43887 5.8943 9.38704 6.20787 9.38524 6.52311C9.3643 6.94866 9.49278 7.36984 9.75416 7.73247C9.88511 7.91249 10.0698 8.0594 10.2893 8.15807C10.5088 8.25675 10.7551 8.30361 11.0028 8.29384C12.1096 8.29384 12.6245 7.6008 12.6245 6.21471C12.6402 5.8528 12.5938 5.49087 12.4866 5.14048C12.2555 4.59991 11.6758 4.04894 10.6907 3.49797L9.81498 2.99898C9.55423 2.84328 9.32079 2.65659 9.12173 2.44454C8.755 2.05196 8.56385 1.56057 8.58253 1.05845C8.59875 0.701535 8.59875 0.438178 8.61496 0.268382ZM21.5435 3.09254L24.1584 1.93515C24.2148 1.90775 24.2615 1.86787 24.2936 1.81969C24.3257 1.77152 24.342 1.71684 24.3408 1.6614C24.3408 1.502 24.1422 1.41191 23.7246 1.41191C23.6638 1.41191 23.5422 1.41191 23.3557 1.41191L22.2043 1.47428L22.1597 0.254521H24.0489C25.557 0.254521 26.3071 0.725793 26.3071 1.6718C26.3071 2.29207 25.9017 2.7772 25.0908 3.13066L22.3097 4.35388L23.9678 6.98052C23.9678 7.42753 24.1827 7.67356 24.5841 7.67356C24.7363 7.67244 24.8819 7.62016 24.9895 7.52802C25.0951 7.42752 25.1504 7.29566 25.1435 7.16071C25.1294 7.02588 25.0774 6.89595 24.992 6.78194C24.9066 6.66794 24.7903 6.57321 24.653 6.50578L26.0638 5.76769C26.4234 6.13509 26.634 6.59227 26.6638 7.07061C26.6772 7.40973 26.5776 7.74511 26.3766 8.03773C26.1756 8.33035 25.8816 8.56817 25.5287 8.72353C25.2109 8.88092 24.85 8.96342 24.4827 8.96263C24.0479 8.98239 23.6162 8.89027 23.2433 8.69816C22.8704 8.50605 22.5734 8.22278 22.3908 7.88494L20.6881 5.06079L19.0664 5.78155C19.3986 5.82134 19.7151 5.9278 19.9899 6.09222C20.2647 6.25665 20.4901 6.47437 20.6475 6.72756C20.8011 6.97384 20.8805 7.24894 20.8786 7.52802C20.8846 7.91359 20.7506 8.29125 20.495 8.609C20.2395 8.92675 19.8749 9.16894 19.4516 9.30222C18.9315 9.50843 18.3624 9.6081 17.7894 9.5933C16.6826 9.5933 15.884 9.27796 15.3934 8.65769C15.154 8.37612 15.0287 8.03543 15.0367 7.68743C15.0381 7.5467 15.0544 7.40637 15.0853 7.26813H16.8529C16.8529 7.96118 17.1894 8.3077 17.8826 8.3077C18.0273 8.31191 18.171 8.28679 18.302 8.23439C18.4331 8.18199 18.5478 8.1038 18.6367 8.00623C18.8239 7.81142 18.9218 7.56512 18.9124 7.31318C18.919 7.15816 18.877 7.00445 18.7908 6.86797C18.7045 6.73149 18.5772 6.61721 18.4218 6.53697C18.2883 6.46409 18.1342 6.42339 17.9759 6.41915C17.7626 6.41714 17.5516 6.45747 17.3597 6.53697L16.8529 6.3152V5.17167L19.9259 3.82024L18.8799 2.12574C18.5272 1.57477 18.1745 1.29755 17.838 1.29755C17.3759 1.29755 17.1448 1.56091 17.1448 2.10149C17.1448 2.37524 17.3921 2.70443 17.8826 3.09947L16.4232 3.92766C16.0617 3.75418 15.7594 3.50314 15.5461 3.19929C15.3328 2.89544 15.2159 2.5493 15.2069 2.19505C15.2063 1.80235 15.3359 1.41754 15.5805 1.08516C15.8252 0.752774 16.175 0.486408 16.5894 0.316895C17.0255 0.105594 17.5192 -0.00320543 18.0205 0.00156113C18.5284 -0.0153825 19.0295 0.105954 19.4516 0.348083C19.8538 0.614467 20.1797 0.95579 20.4043 1.34607L21.5435 3.09254ZM28.0584 0.268382H30.0571C30.0239 0.353257 30.0075 0.442256 30.0085 0.53174C30.0075 0.825821 30.086 1.11612 30.2379 1.37999C30.3898 1.64386 30.611 1.87418 30.8841 2.05297C31.1856 2.26407 31.4996 2.46185 31.8247 2.64553C32.9761 3.30392 33.6693 3.98657 33.8963 4.72466C34.0299 5.13986 34.0927 5.56934 34.0828 5.99986C34.0828 7.23348 33.7139 8.15523 32.9761 8.77204C32.637 9.04837 32.2368 9.26398 31.7989 9.40621C31.361 9.54843 30.8942 9.6144 30.426 9.60023C29.0436 9.60023 28.026 9.15321 27.3814 8.25919C27.0331 7.75444 26.8628 7.17446 26.8909 6.58895C26.8913 6.25198 26.943 5.91649 27.0449 5.59096H29.0112C28.906 5.8938 28.8487 6.2073 28.8409 6.52311C28.8311 6.95186 28.9723 7.37323 29.2463 7.73247C29.3745 7.90831 29.554 8.05257 29.7673 8.15101C29.9806 8.24945 30.2202 8.29868 30.4625 8.29384C31.5531 8.29384 32.1085 7.6008 32.1085 6.21471C32.1265 5.85183 32.0745 5.48889 31.9544 5.14048C31.7396 4.59991 31.1436 4.04894 30.1544 3.49797L29.2949 2.99898C29.0291 2.84875 28.7947 2.66132 28.6017 2.44454C28.2312 2.0531 28.0358 1.56178 28.0503 1.05845C28.0301 0.701535 28.0584 0.438178 28.0706 0.268382H28.0584ZM41.218 0.268382H43.0465C43.0497 0.579553 42.9648 0.886773 42.7989 1.16376C42.6329 1.44075 42.391 1.67928 42.0937 1.85892C41.4821 2.20373 40.8195 2.47757 40.1234 2.67325C39.0329 3.01977 38.3558 3.24847 38.0964 3.36629C37.4388 3.63448 36.8847 4.05768 36.4991 4.58605C36.93 4.29264 37.4686 4.13918 38.0194 4.1529C38.3902 4.14772 38.757 4.21904 39.0886 4.36079C39.4203 4.50255 39.7072 4.71057 39.9248 4.96722C40.213 4.68827 40.5724 4.46974 40.9752 4.32853C41.378 4.18732 41.8134 4.12723 42.2478 4.1529C42.7356 4.13109 43.2192 4.23944 43.6318 4.46294C44.0443 4.68643 44.3654 5.01403 44.5505 5.40038C44.7783 5.86155 44.8888 6.35881 44.8748 6.85924C44.8497 7.75176 44.4997 8.61539 43.8735 9.32994H41.9072C42.5069 8.54346 42.8562 7.63694 42.9208 6.69984C42.9296 6.40227 42.8457 6.10805 42.6775 5.84739C42.5925 5.72058 42.4687 5.61589 42.3195 5.54449C42.1703 5.47309 42.0012 5.43765 41.8302 5.44196C41.6869 5.43716 41.5441 5.45917 41.4117 5.50645C41.2794 5.55374 41.1607 5.62515 41.064 5.71571C40.8713 5.89981 40.7708 6.14121 40.7843 6.38797V7.38595H38.9761V6.38797C38.9798 6.25747 38.9502 6.12786 38.8893 6.00816C38.8284 5.88847 38.7376 5.78157 38.6234 5.69492C38.3845 5.52864 38.0842 5.44022 37.7761 5.44543C37.5902 5.43881 37.4053 5.47251 37.2388 5.5434C37.0722 5.61429 36.9293 5.72006 36.8234 5.85086C36.6018 6.11869 36.4893 6.44132 36.5031 6.76914C36.519 7.68326 36.8443 8.57389 37.4396 9.33341H35.4896C34.9089 8.4062 34.587 7.37677 34.549 6.32559C34.5166 5.76289 34.6201 5.20051 34.853 4.67349C35.086 4.14647 35.4435 3.66611 35.9031 3.26233C36.4256 2.80879 37.0542 2.45455 37.7477 2.22277C38.2099 2.06337 39.0207 1.77575 40.2045 1.35646C40.4579 1.24993 40.681 1.09734 40.8582 0.909395C41.0354 0.721445 41.1623 0.50267 41.2302 0.268382H41.218ZM51.4668 4.83901H49.5168V2.41336C49.531 2.14809 49.4458 1.88588 49.2735 1.66487C49.1908 1.55544 49.0764 1.46608 48.9415 1.40538C48.8066 1.34469 48.6557 1.31472 48.5033 1.31834C48.3309 1.30974 48.1589 1.34051 48.005 1.40749C47.8511 1.47448 47.7208 1.57527 47.6276 1.69952C47.4466 1.95262 47.3551 2.24504 47.3641 2.54157V6.58895C47.3739 7.5397 47.594 8.48029 48.0127 9.36113H46.1965C45.7785 8.68846 45.5235 7.9507 45.4465 7.1919C45.414 6.90429 45.3978 6.57509 45.3978 6.20777V2.81879C45.3978 1.5817 45.9208 0.739653 46.983 0.320361C47.4458 0.126363 47.9554 0.0278529 48.4708 0.0327469C48.8501 0.0294804 49.2264 0.0905874 49.5778 0.212528C49.9292 0.334468 50.2489 0.514817 50.5182 0.743119C50.8055 0.507532 51.1451 0.32335 51.5168 0.201368C51.8886 0.0793867 52.285 0.0220591 52.683 0.0327469C53.1852 0.0135312 53.6838 0.113815 54.1233 0.322436C54.5628 0.531058 54.9259 0.839834 55.1723 1.21439C55.4845 1.70554 55.6331 2.26046 55.602 2.81879V6.20777C55.6354 7.29958 55.3571 8.38191 54.7912 9.36113H52.979C53.2796 8.74253 53.4814 8.09216 53.579 7.42753C53.6074 7.1919 53.6236 6.90428 53.6236 6.60281V2.55543C53.6391 2.26058 53.5547 1.96817 53.3804 1.71338C53.2861 1.58911 53.1551 1.48838 53.0006 1.42143C52.8461 1.35448 52.6736 1.32369 52.5006 1.33221C52.3465 1.32845 52.1938 1.35828 52.0569 1.41891C51.92 1.47953 51.8035 1.56895 51.7182 1.67873C51.5556 1.90297 51.4751 2.16361 51.4871 2.42722L51.4668 4.83901Z" fill="#006EE5"/>
<path id="path11" d="M53.3249 14.8758H54.8614C54.8346 14.9827 54.8251 15.0923 54.833 15.2015C54.8705 15.3986 54.9653 15.5844 55.1087 15.7421C55.3998 16.0634 55.5707 16.4522 55.5992 16.8579C55.6173 17.2495 55.5093 17.6378 55.287 17.9806C55.0647 18.3234 54.7365 18.6075 54.3384 18.8018C53.8738 19.0371 53.3418 19.1571 52.8019 19.1484C51.6343 19.1484 50.8194 18.8018 50.3694 18.1365C50.0661 17.6425 49.918 17.0897 49.9397 16.5321V11.8264H51.3667V16.3866C51.3667 17.1593 51.537 17.6722 51.8775 17.9217C52.1194 18.0771 52.419 18.1523 52.7208 18.1331C52.9578 18.1431 53.1932 18.0937 53.3977 17.9909C53.6023 17.8881 53.7672 17.7363 53.8722 17.5544C53.9834 17.3713 54.0418 17.1681 54.0424 16.9618C54.0021 16.6073 53.8539 16.2681 53.6127 15.9777C53.5195 15.8322 53.4141 15.6762 53.3208 15.5064C53.287 15.4345 53.2665 15.3585 53.26 15.2812C53.2601 15.1442 53.2819 15.0078 53.3249 14.8758ZM5.29591 11.8264H6.72701C6.7324 12.07 6.66798 12.311 6.53938 12.5284C6.41077 12.7459 6.22187 12.9331 5.98917 13.0738C5.51099 13.352 4.98791 13.5692 4.43645 13.7184C3.58914 13.9956 3.054 14.1792 2.85129 14.2693C2.33417 14.4807 1.89822 14.8137 1.59452 15.2292C1.92842 14.9996 2.34576 14.877 2.77426 14.8827C3.06741 14.8781 3.35753 14.934 3.62006 15.0455C3.88258 15.1571 4.10978 15.3212 4.28239 15.5237C4.50881 15.3038 4.79163 15.1314 5.10878 15.0202C5.42593 14.909 5.76885 14.862 6.11079 14.8827C6.49264 14.8693 6.8701 14.9565 7.19205 15.1325C7.514 15.3086 7.7649 15.5649 7.91081 15.8668C8.09107 16.228 8.17951 16.6177 8.17027 17.0103C8.14992 17.7157 7.86576 18.397 7.35945 18.9543H5.82295C6.29563 18.3315 6.5747 17.6159 6.63377 16.8752C6.64718 16.6436 6.5779 16.414 6.43512 16.2168C6.37702 16.1099 6.28335 16.02 6.16582 15.9584C6.04828 15.8968 5.9121 15.8661 5.7743 15.8703C5.66225 15.8656 5.55037 15.8821 5.44666 15.9186C5.34294 15.9552 5.24994 16.0108 5.17429 16.0816C5.02192 16.2305 4.94467 16.4248 4.95942 16.6222V17.395H3.52833V16.6222C3.53162 16.5183 3.5087 16.415 3.46113 16.3193C3.41356 16.2237 3.34246 16.1379 3.25265 16.0678C3.06907 15.9336 2.83326 15.8631 2.59183 15.8703C2.44181 15.8674 2.29348 15.8978 2.16131 15.9585C2.02914 16.0192 1.91766 16.1082 1.83777 16.2168C1.6683 16.4181 1.58266 16.6621 1.59452 16.9098C1.60318 17.6316 1.85975 18.3353 2.33237 18.9335H0.791807C0.345096 18.2058 0.0943852 17.4019 0.0580151 16.5806C0.033349 16.1395 0.114895 15.6988 0.297602 15.2857C0.480308 14.8727 0.760281 14.4961 1.12019 14.1792C1.53787 13.8264 2.02684 13.5411 2.56345 13.3372C2.93237 13.2194 3.56482 12.9907 4.50131 12.6684C4.69691 12.5853 4.86917 12.467 5.00632 12.3216C5.14347 12.1763 5.24225 12.0074 5.29591 11.8264ZM10.1933 14.0476H8.73379C8.7241 13.9033 8.7241 13.7587 8.73379 13.6144C8.72296 13.255 8.83694 12.901 9.06134 12.5969C9.28574 12.2929 9.6105 12.0525 9.99462 11.9061C10.4489 11.7019 10.9573 11.6016 11.4703 11.615C13.2379 11.615 14.123 12.509 14.1257 14.2971V16.8579C14.1473 17.1675 14.0944 17.4775 13.9703 17.769C13.8461 18.0604 13.6535 18.327 13.4041 18.5524C13.1346 18.7598 12.8194 18.919 12.4768 19.0208C12.1343 19.1226 11.7714 19.1648 11.4095 19.1449C10.1649 19.1449 9.27299 18.7741 8.72163 18.0256C8.44639 17.6387 8.30577 17.1928 8.31622 16.74C8.31443 16.5085 8.32932 16.277 8.36081 16.047H10.023C9.90175 16.2874 9.84363 16.5476 9.85273 16.8093C9.8346 17.1552 9.97246 17.4938 10.2379 17.7554C10.3701 17.8783 10.5323 17.975 10.713 18.0384C10.8938 18.1019 11.0886 18.1307 11.2838 18.1227C12.2041 18.1227 12.6663 17.6757 12.6663 16.7574V13.8535C12.6663 13.038 12.2514 12.6303 11.4217 12.6303C11.084 12.6215 10.7546 12.7203 10.4973 12.9075C10.3742 13.0042 10.2766 13.1222 10.2109 13.2537C10.1452 13.3851 10.1129 13.527 10.1162 13.6699C10.125 13.7978 10.1509 13.9246 10.1933 14.0476ZM16.3555 14.0476H14.896C14.8863 13.9033 14.8863 13.7587 14.896 13.6144C14.8852 13.255 14.9992 12.901 15.2236 12.5969C15.448 12.2929 15.7727 12.0525 16.1569 11.9061C16.6113 11.7022 17.1195 11.6019 17.6325 11.615C19.4001 11.615 20.292 12.509 20.292 14.2971V16.8579C20.3128 17.1677 20.2591 17.4779 20.1343 17.7693C20.0095 18.0607 19.8162 18.3272 19.5664 18.5524C19.2983 18.7585 18.9851 18.917 18.6447 19.0187C18.3044 19.1205 17.9438 19.1634 17.5839 19.1449C16.3393 19.1449 15.4474 18.7741 14.896 18.0256C14.6303 17.636 14.497 17.1908 14.5109 16.74C14.5082 16.5083 14.5245 16.2768 14.5595 16.047H16.2177C16.0984 16.2879 16.0403 16.5478 16.0474 16.8093C16.0389 17.157 16.1836 17.4946 16.4528 17.7554C16.5854 17.8779 16.7477 17.9743 16.9283 18.0378C17.109 18.1012 17.3036 18.1302 17.4988 18.1227C18.419 18.1227 18.8812 17.6757 18.8812 16.7574V13.8535C18.8812 13.038 18.4663 12.6303 17.6366 12.6303C17.3 12.6207 16.9715 12.7197 16.7163 12.9075C16.5942 13.0043 16.4979 13.1226 16.4343 13.2542C16.3706 13.3858 16.341 13.5276 16.3474 13.6699C16.3309 13.7954 16.3309 13.9221 16.3474 14.0476H16.3555ZM24.2569 14.8758H25.7935C25.7626 14.9822 25.7517 15.0921 25.761 15.2015C25.8004 15.3981 25.895 15.5836 26.0367 15.7421C26.3288 16.0632 26.5011 16.4519 26.5313 16.8579C26.5455 17.2505 26.4341 17.6391 26.2091 17.9817C25.9841 18.3242 25.6539 18.6078 25.2543 18.8018C24.7958 19.0375 24.2688 19.1576 23.734 19.1484C22.5623 19.1484 21.7515 18.8018 21.3015 18.1365C20.9982 17.6425 20.8501 17.0897 20.8718 16.5321V11.8264H22.3029V16.3866C22.3029 17.1593 22.4731 17.6722 22.8096 17.9217C23.0515 18.0771 23.3511 18.1523 23.6529 18.1331C23.8894 18.1383 24.123 18.0869 24.3272 17.9846C24.5314 17.8823 24.698 17.7333 24.8083 17.5544C24.9127 17.3697 24.9654 17.1669 24.9624 16.9618C24.9254 16.61 24.786 16.2717 24.5569 15.9777C24.4678 15.8322 24.3583 15.6762 24.2529 15.5064C24.2222 15.4342 24.2057 15.358 24.2042 15.2812C24.195 15.1449 24.21 15.0082 24.2488 14.8758H24.2569ZM30.2651 15.2431C30.2651 15.317 30.2827 15.3901 30.3169 15.4581C30.351 15.526 30.401 15.5872 30.4638 15.6381C30.5232 15.6955 30.5972 15.7407 30.6801 15.7701C30.763 15.7995 30.8526 15.8124 30.9422 15.8079C31.0307 15.8094 31.1186 15.795 31.2003 15.7658C31.282 15.7365 31.3556 15.693 31.4165 15.6381C31.54 15.5291 31.611 15.3844 31.6151 15.2327C31.6149 15.0752 31.5438 14.9238 31.4165 14.8099C31.2874 14.7082 31.1177 14.6524 30.9422 14.654C30.7599 14.6494 30.5827 14.7053 30.4476 14.8099C30.384 14.8678 30.3344 14.9359 30.3017 15.0102C30.269 15.0846 30.2538 15.1637 30.257 15.2431H30.2651ZM30.3705 13.1917C30.367 13.3437 30.4341 13.4907 30.557 13.6006C30.6202 13.6567 30.6966 13.7009 30.7811 13.7302C30.8656 13.7594 30.9564 13.7731 31.0476 13.7703C31.1354 13.7725 31.2228 13.7598 31.3049 13.733C31.387 13.7063 31.4621 13.666 31.526 13.6144C31.6525 13.5001 31.7235 13.349 31.7246 13.1917C31.7237 13.0353 31.6526 12.8852 31.526 12.7724C31.3974 12.6673 31.2254 12.61 31.0476 12.613C30.9562 12.6109 30.8653 12.6252 30.7808 12.655C30.6963 12.6849 30.62 12.7296 30.557 12.7862C30.4948 12.8394 30.4456 12.9027 30.4122 12.9723C30.3788 13.0419 30.3619 13.1164 30.3624 13.1917H30.3705ZM27.407 14.1377H28.9597C28.4807 14.7032 28.2225 15.3835 28.2219 16.0816C28.1842 16.4523 28.2806 16.8239 28.4982 17.1462C28.7157 17.4685 29.0438 17.7259 29.4381 17.8836C29.8884 18.049 30.3752 18.1293 30.8651 18.1192C32.1584 18.1192 32.957 17.7727 33.2976 17.0415C33.4135 16.7909 33.4753 16.5244 33.48 16.2549C33.48 15.2535 33.0746 14.6124 32.2638 14.349C32.5669 14.6619 32.7255 15.0588 32.7098 15.4648C32.7131 15.6496 32.6661 15.8325 32.5725 15.9991C32.4789 16.1657 32.3413 16.3114 32.1706 16.4247C31.8232 16.6553 31.3941 16.7776 30.9543 16.7712C30.6526 16.7901 30.3504 16.7404 30.0784 16.6272C29.8065 16.514 29.5744 16.3413 29.4057 16.1267C29.2468 15.9209 29.1609 15.6802 29.1584 15.4337C29.1454 15.1583 29.235 14.8865 29.4142 14.6573C29.5934 14.4282 29.853 14.2535 30.1557 14.1585C29.8518 14.0604 29.5923 13.8824 29.4145 13.6501C29.2367 13.4178 29.1498 13.1432 29.1665 12.8659C29.1613 12.6222 29.248 12.3835 29.4137 12.1851C29.5794 11.9866 29.8154 11.839 30.0868 11.764C30.3765 11.6685 30.6843 11.6192 30.9949 11.6184C31.5016 11.6015 31.9984 11.7418 32.3935 12.0135C32.5443 12.1067 32.6681 12.2284 32.7552 12.3689C32.8424 12.5095 32.8906 12.6653 32.8962 12.8243C32.9086 13.0312 32.8553 13.2371 32.7418 13.4201C32.6283 13.6032 32.4589 13.7565 32.2516 13.8639C32.725 13.8803 33.1867 13.9936 33.5981 14.1944C34.0094 14.3953 34.3582 14.6777 34.6152 15.0178C34.8827 15.3979 35.0164 15.8358 35.0003 16.2792C35.0348 16.7864 34.895 17.2911 34.5983 17.7313C34.3015 18.1715 33.8607 18.528 33.33 18.7568C32.6245 19.0394 31.8506 19.1748 31.0719 19.1518C30.011 19.1966 28.9569 18.984 28.0313 18.5385C27.5862 18.299 27.2245 17.9616 26.9842 17.5617C26.7438 17.1618 26.6336 16.7141 26.6651 16.2653C26.6779 15.5121 26.9317 14.7763 27.3989 14.1377H27.407ZM40.4004 11.8264H41.8153C41.8217 12.0701 41.7578 12.3115 41.6291 12.5291C41.5004 12.7466 41.3109 12.9338 41.0774 13.0738C40.6003 13.3514 40.0787 13.5685 39.5287 13.7184C38.6814 13.9956 38.1423 14.1792 37.9436 14.2693C37.4261 14.4816 36.9891 14.8143 36.6828 15.2292C37.0181 14.9993 37.4368 14.8768 37.8666 14.8827C38.1604 14.8762 38.4517 14.9304 38.7156 15.0408C38.9796 15.1513 39.2085 15.3145 39.3828 15.5168C39.6092 15.2968 39.892 15.1245 40.2092 15.0133C40.5264 14.9021 40.8693 14.855 41.2112 14.8758C41.5967 14.8577 41.9791 14.9428 42.3053 15.1192C42.6316 15.2955 42.8854 15.5545 43.0315 15.8599C43.2152 16.2202 43.3051 16.6104 43.295 17.0034C43.2727 17.7085 42.9887 18.3893 42.4842 18.9474H40.9477C41.4186 18.3238 41.6975 17.6086 41.7585 16.8683C41.7728 16.6361 41.702 16.4059 41.5558 16.2099C41.4977 16.103 41.404 16.0131 41.2865 15.9515C41.169 15.8898 41.0328 15.8592 40.895 15.8633C40.7835 15.8587 40.6723 15.8752 40.5692 15.9118C40.4662 15.9483 40.3739 16.004 40.299 16.0747C40.1507 16.2257 40.0727 16.4182 40.0801 16.6153V17.388H38.6531V16.6153C38.6564 16.5114 38.6334 16.4081 38.5859 16.3124C38.5383 16.2167 38.4672 16.1309 38.3774 16.0609C38.1938 15.9266 37.958 15.8561 37.7166 15.8633C37.5665 15.8601 37.418 15.8903 37.2858 15.9511C37.1535 16.0119 37.0421 16.1011 36.9625 16.2099C36.7919 16.4108 36.7048 16.6548 36.7152 16.9029C36.7258 17.6244 36.9822 18.3277 37.453 18.9266H35.8963C35.4458 18.1949 35.1936 17.3861 35.1584 16.5599C35.1328 16.1187 35.2139 15.6777 35.3966 15.2645C35.5794 14.8513 35.8599 14.4748 36.2206 14.1585C36.6383 13.8056 37.1273 13.5203 37.6639 13.3164C38.0328 13.1986 38.6612 12.9699 39.6017 12.6476C39.7955 12.5671 39.9669 12.4522 40.1046 12.3106C40.2423 12.169 40.3432 12.0039 40.4004 11.8264ZM45.8086 18.9612H44.3815C43.9578 18.057 43.6638 17.1122 43.5058 16.1475C43.4522 15.8168 43.4265 15.4833 43.4288 15.1495C43.391 14.481 43.5052 13.8126 43.7653 13.1813C43.9063 12.8707 44.1195 12.5878 44.3919 12.3496C44.6644 12.1114 44.9904 11.9228 45.3504 11.7952C45.7174 11.6729 46.1079 11.6106 46.5018 11.6115C46.9066 11.6014 47.3092 11.6654 47.6826 11.7993C48.056 11.9332 48.3915 12.1338 48.6667 12.3877C49.1684 12.8488 49.469 13.4435 49.5181 14.0718C49.5464 14.4183 49.5626 14.7649 49.5626 15.1356C49.5491 15.9948 49.3977 16.8482 49.1126 17.6722C48.9748 18.1053 48.8086 18.5246 48.6221 18.9474H47.1951C47.5425 18.1632 47.7938 17.3503 47.9451 16.5217C48.0078 16.1116 48.039 15.6983 48.0383 15.2846C48.0383 14.1688 47.8559 13.4065 47.4869 13.0115C47.3655 12.891 47.2139 12.7955 47.0433 12.7319C46.8728 12.6683 46.6877 12.6383 46.5018 12.6441C45.718 12.6441 45.241 13.0785 45.0707 13.9471C44.9929 14.3897 44.9577 14.8371 44.9653 15.2846C44.9855 16.5391 45.2712 17.78 45.8086 18.9474V18.9612Z" fill="#006EE5"/>
</g>
</svg>
