<svg width="14" height="14" viewBox="0 0 14 14" fill="#FFFFFF" xmlns="http://www.w3.org/2000/svg">
<g id="Group 11">
<g id="16px-logo-instagram">
<path id="Oval" d="M10.6271 4.24494C11.091 4.24494 11.4671 3.86886 11.4671 3.40494C11.4671 2.94102 11.091 2.56494 10.6271 2.56494C10.1632 2.56494 9.78711 2.94102 9.78711 3.40494C9.78711 3.86886 10.1632 4.24494 10.6271 4.24494Z" fill="#466697"/>
<path id="Shape" fill-rule="evenodd" clip-rule="evenodd" d="M3.5 7C3.5 8.93025 5.06975 10.5 7 10.5C8.93025 10.5 10.5 8.93025 10.5 7C10.5 5.06975 8.93025 3.5 7 3.5C5.06975 3.5 3.5 5.06975 3.5 7ZM5.25 7C5.25 6.03488 6.03488 5.25 7 5.25C7.96513 5.25 8.75 6.03488 8.75 7C8.75 7.96513 7.96513 8.75 7 8.75C6.03488 8.75 5.25 7.96513 5.25 7Z" fill="#FFFFFF"/>
<path id="Shape_2" fill-rule="evenodd" clip-rule="evenodd" d="M3.5 14H10.5C12.299 14 14 12.299 14 10.5V3.5C14 1.701 12.299 0 10.5 0H3.5C1.701 0 0 1.701 0 3.5V10.5C0 12.299 1.701 14 3.5 14ZM1.75 3.5C1.75 2.68187 2.68187 1.75 3.5 1.75H10.5C11.3181 1.75 12.25 2.68187 12.25 3.5V10.5C12.25 11.3181 11.3181 12.25 10.5 12.25H3.5C2.66613 12.25 1.75 11.3339 1.75 10.5V3.5Z" fill="#FFFFFF"/>
</g>
</g>
</svg>
