<svg width="32" height="19" viewBox="0 0 32 19" fill="none" xmlns="http://www.w3.org/2000/svg">
<g id="Logo-new 1" clip-path="url(#clip0_1474_15450)">
<g id="Layer 2">
<g id="svg27">
<g id="g23">
<path id="path13" fill-rule="evenodd" clip-rule="evenodd" d="M13.184 6.46552H13.312C13.2871 6.16488 13.3653 6.07509 13.2266 5.85644C13.0097 5.49334 12.672 5.70027 13.184 4.92721C13.2551 4.82179 13.8666 4.3806 13.9911 5.23175C14.04 5.43575 14.0663 5.64551 14.0693 5.85644C13.7955 6.12194 13.8702 5.94624 13.5786 5.96576L13.632 6.3562V6.74663C14.2897 6.45771 14.3822 5.96576 14.9582 6.92233C15.1431 6.92233 15.3813 6.92233 15.5306 6.92233C15.7522 6.96006 15.9663 7.0393 16.1635 7.15659C16.4693 7.31667 16.2382 7.38694 16.5191 7.37133C16.6124 7.36185 16.7038 7.33546 16.7893 7.29324L16.8391 7.17221C17.6106 6.99261 17.5004 6.9887 18.2933 7.64854C18.3537 7.60949 18.4 7.38694 18.7662 7.64854C18.9191 7.74614 19.0471 7.90622 19.1964 7.99212C19.3528 7.80861 19.3457 7.78519 19.6693 7.72662C19.6693 7.13707 20.4302 6.94575 20.9244 7.02774C21.1413 7.06288 21.1875 7.1683 21.3155 7.28543C21.4228 7.05782 21.6025 6.88138 21.8204 6.78958C21.943 6.69852 22.0894 6.65417 22.2371 6.66334C22.3848 6.67251 22.5257 6.73469 22.6382 6.84034C22.8586 6.64512 22.752 6.4499 23.0328 6.33277C23.488 6.15708 23.2355 6.42648 23.5875 6.02042C24.1173 5.40744 25.248 6.12194 25.2408 5.54409C25.2408 5.36449 25.3013 5.32936 25.3226 5.18099C25.2124 5.08338 24.768 4.92721 24.5688 4.76323C24.0675 4.37279 24.1315 4.50944 23.7155 4.39622C23.2995 4.28299 22.528 3.47089 22.0017 3.51384C21.8311 4.12291 21.8417 3.79885 21.1484 4.09949C21.1114 4.0617 21.078 4.01984 21.0488 3.97455C20.8817 3.81447 20.7324 3.77152 20.8213 3.47089C20.9102 3.17025 21.1128 3.49822 21.4577 3.17806C21.3226 2.95551 21.5004 3.23272 21.0702 2.88524C20.8746 2.73687 20.896 2.69783 20.7324 2.4948L20.3057 2.25664C19.955 2.20484 19.6273 2.03581 19.3671 1.7725C18.4 1.33912 18.9546 1.87011 18.144 1.64366C17.9946 1.60071 17.9448 1.55776 17.8133 1.51091C17.6071 1.42892 17.5822 1.48748 17.3617 1.44453C17.2551 1.15561 17.2693 1.17513 17.4151 0.956491C17.8168 0.956491 17.7173 1.058 17.8595 1.28836C18.3573 1.20246 18.0231 1.26493 18.3466 1.36645C18.432 1.13609 18.3786 1.16342 18.1973 0.995534C18.0942 0.894021 17.9982 0.702708 17.9057 0.640239C17.7493 0.534822 17.6248 0.593387 17.4577 0.507491C17.1235 0.347413 16.768 -0.195291 16.224 0.0702047C15.4133 0.460639 15.9004 0.339604 15.5697 0.74956C15.104 0.74956 15.1075 0.558248 14.5031 0.714421C13.9804 0.854978 13.824 0.737847 13.8346 1.36645C13.4613 1.42892 13.3617 1.79983 12.9706 1.58119C12.5795 1.36254 12.9493 1.40159 12.0426 1.80764C11.9253 1.8623 11.872 1.88963 11.7937 1.93258C11.0826 2.26835 11.6586 1.81935 10.8977 2.42062C10.6168 2.63145 10.8551 2.54165 10.464 2.69783L9.07373 3.38499C9.17329 3.77543 9.54306 3.77543 9.64973 3.8418C9.9164 4.00578 9.85595 4.29861 9.86662 4.66562C10.3431 4.79056 10.3928 5.05605 10.5777 5.23565C10.9333 5.59875 11.3351 5.31374 11.6088 5.4621C11.7582 5.5519 11.7688 5.68075 11.904 5.79397C12.4942 6.2664 12.32 5.98919 12.7822 6.21955C13.0453 6.34058 12.8888 6.39524 13.184 6.46552Z" fill="#006EE5"/>
<path id="path15" fill-rule="evenodd" clip-rule="evenodd" d="M24.704 6.6139C24.5831 6.93015 24.6648 7.00433 24.416 7.18783C24.416 7.18783 24.416 7.18783 24.3804 7.20736C24.0853 7.39086 23.7617 7.32058 23.4631 7.57046C22.8728 7.43381 23.0577 7.29325 22.432 7.61731C21.8737 7.90623 21.8275 7.7891 21.3653 7.71882L21.2124 8.07802C21.2124 8.07802 21.2124 8.10535 21.2124 8.12878L21.3688 8.16001C21.6253 8.25498 21.8639 8.40052 22.0728 8.58949C22.1297 8.81594 22.0124 8.78471 22.0195 9.06582C22.1688 9.10877 22.0906 9.19857 22.208 9.27275C22.208 9.27275 22.5635 9.30008 22.5884 9.29227C22.3786 9.29227 22.5173 9.23761 22.5031 9.51482L23.0151 9.69833C23.0422 9.73284 23.0672 9.76937 23.0897 9.80765C23.2391 10.0146 23.36 9.93649 23.3564 10.2645C23.3681 10.2494 23.3826 10.2374 23.3991 10.2293C23.3991 10.2293 23.424 10.2293 23.4346 10.2098C23.4442 10.1985 23.4566 10.1903 23.4702 10.1864C23.5626 10.1278 23.4311 10.1551 23.5342 10.1864C23.5768 10.5339 23.616 10.4128 23.8648 10.5378C24.1137 10.6627 23.9395 10.6354 24.0817 10.651C24.224 10.6666 24.1742 10.651 24.1742 10.5807L24.2951 10.8735C24.7893 10.6978 24.5546 10.5573 25.0524 10.9282C25.0524 10.9282 25.1662 10.9946 25.1911 11.018C25.3866 11.1585 25.2942 11.3616 25.5217 11.5256L25.984 11.752C26.0586 11.7754 26.304 11.8145 26.3893 11.834L26.7448 11.7676C26.7093 11.4826 26.7448 11.5217 26.5031 11.4201C26.2613 11.3186 26.368 11.3928 26.1795 11.2288C26.2263 11.0777 26.2526 10.9198 26.2577 10.7603C26.2577 10.3699 26.1795 10.5104 26.1688 10.5104C26.3253 10.3347 26.2115 10.4362 26.3075 10.2996C26.4394 10.1462 26.5379 9.96201 26.5955 9.7608C26.8601 9.89754 27.0915 10.1009 27.2711 10.3543L27.4168 10.6198C27.6693 11.4748 27.1822 11.4006 27.1964 11.6544C27.3705 11.6575 27.5406 11.5971 27.68 11.4826C28.5866 10.6627 28.8391 11.1703 29.2551 11.0063C29.3902 10.4441 28.96 10.6783 28.544 10.5534C28.544 10.2215 28.5724 10.3699 28.608 10.1434C28.6684 9.75299 28.4124 9.91306 29.0168 9.03068C29.1128 8.89403 29.2124 8.92917 29.2551 8.7769C29.3623 8.88918 29.5019 8.95684 29.6497 8.96821C29.9342 9.00726 29.5182 8.84327 29.7208 8.96821L29.9911 9.30789C30.0408 9.34694 29.9911 9.30789 30.08 9.35865C29.9733 9.61633 30.0088 9.46407 30.0053 9.78422C30.0053 10.4675 29.5715 10.2996 29.6035 10.8579C30.5777 10.6119 30.4711 9.7608 30.656 9.37036C30.6697 9.37606 30.6849 9.37606 30.6986 9.37036H30.7662C31.3066 9.33522 31.4097 9.34694 31.7333 9.12439C32.0568 8.90184 31.9537 8.79642 32 8.62073C30.0942 7.33229 28.4444 7.00433 26.6346 6.12195C26.4261 6.1821 26.2131 6.2213 25.9982 6.23908C25.5644 6.24689 25.0737 6.11414 24.704 6.6139Z" fill="#FDC500"/>
<path id="path17" fill-rule="evenodd" clip-rule="evenodd" d="M21.8309 12.8607C22.3195 12.6192 22.7763 12.3066 23.1891 11.9315C23.1251 11.5801 23.2566 11.7167 22.99 11.5957L23.4664 11.3927C23.7437 11.3927 23.8575 11.705 23.9002 11.9666C24.1243 11.9634 24.3475 11.999 24.5615 12.072V12.3609C25.0273 12.1033 24.6362 12.5991 25.0842 12.3922C25.1624 13.2121 24.7606 12.9895 24.2949 13.2004C23.8291 13.3019 23.9144 13.7353 23.6193 13.9071C23.5361 13.9492 23.4506 13.9857 23.3633 14.0164C23.0504 14.1491 22.8833 14.3287 22.7375 14.3795C22.2646 14.114 21.7384 14.5279 21.2869 14.8441C21.0166 15.0393 21.1304 15.2814 20.8993 15.4766C20.8648 15.4991 20.8315 15.5239 20.7997 15.5508L20.7037 15.6094L20.3482 15.6796L20.2913 15.8046C20.2747 15.8494 20.2545 15.8926 20.2309 15.9334L19.9642 16.359C19.9535 16.4082 19.93 16.453 19.8966 16.4878C19.8966 16.4878 19.8113 16.5464 19.79 16.5386C19.4771 16.5386 20.1455 16.6011 19.5731 16.4722C19.5304 16.7455 19.5197 16.5386 19.4664 16.765C19.2784 16.7504 19.0914 16.8068 18.9366 16.9251C18.6664 17.214 18.8477 17.214 18.9366 17.5342C18.5562 18.2253 17.87 18.3463 17.5998 18.5845C17.4753 18.6977 17.5002 18.7563 17.3117 18.725C17.139 18.6668 16.9857 18.5541 16.8709 18.401C16.7215 18.237 16.5153 18.2955 16.3091 18.3775C16.1029 18.4595 16.0495 18.4634 16.0744 18.7406C16.0389 18.7172 15.8966 18.6157 15.8646 18.604C15.6975 18.5337 15.7118 18.604 15.5624 18.5376C15.4664 18.2721 15.4558 18.0105 15.758 17.9481C15.7366 17.8544 15.694 17.8114 15.7117 17.7177L16.0673 17.6357L16.2202 17.5693C16.2315 17.5564 16.2466 17.5481 16.2629 17.5459L16.4122 17.3273C16.5366 17.1086 16.7677 17.0227 16.8922 16.808C17.0842 16.4917 17.0949 16.6518 17.3117 16.48C17.4469 16.3746 17.4682 16.1404 17.614 16.0427L17.678 16.0154C18.9544 15.4063 17.8309 14.6489 17.4646 15.4102C16.1171 16.4644 16.4157 16.7143 15.3313 17.1399C15.0212 17.3644 14.735 17.6263 14.478 17.9207L14.3855 18.1979C14.0086 18.2409 14.2966 18.1979 14.03 18.1433C13.5144 18.0535 13.6744 18.3932 13.4646 17.6396C13.4646 17.6396 13.4469 17.6006 13.4326 17.5928C13.3793 17.4913 13.3082 17.4795 13.2371 17.4444C13.166 17.4093 13.1446 17.3819 13.0664 17.339C12.7109 17.1555 12.6433 17.4405 12.2878 17.1711C12.1704 17.0852 12.2309 17.1711 12.1633 17.054C12.3304 16.929 11.9855 17.1477 12.27 16.9993C12.2815 17.0035 12.294 17.0035 12.3055 16.9993L12.6006 16.7846C12.6006 16.7846 12.6006 16.7846 12.6255 16.7846L12.9633 16.3941C13.1731 16.1364 12.8602 16.4566 13.0415 16.3043C13.0415 16.3043 13.0415 16.3043 13.07 16.3043C13.3138 16.1897 13.5513 16.0593 13.7811 15.9139C13.8415 15.6679 14.03 15.582 14.2433 15.5235C14.7589 15.3985 14.8193 15.4883 14.798 14.8949L15.3704 14.6216C15.5944 14.4888 15.4166 14.6216 15.5802 14.4615C15.812 14.2385 16.0734 14.0555 16.3553 13.9188C16.6398 13.8134 16.5758 13.9188 16.8211 13.8368C17.0664 13.7548 16.8922 13.7938 16.9918 13.7119C17.0913 13.6299 17.3118 13.4229 17.3473 13.2707C17.4504 12.8802 16.9917 12.849 17.9233 12.5991C18.1935 12.5249 18.2789 12.3727 18.4069 12.1345C18.3713 11.9354 18.4069 11.9627 18.3073 11.8339L18.7304 11.5723C18.7304 11.0491 19.3135 11.0959 20.0424 10.7016C20.8673 10.2448 20.3695 10.3658 20.7286 10.112C20.8258 10.0531 20.9268 10.0022 21.0309 9.95978L21.2762 10.116C21.5393 10.1823 22.0193 10.155 22.094 10.8422C22.1935 10.8031 22.2895 10.6977 22.414 10.7172C22.5138 10.7685 22.6242 10.79 22.734 10.7797C22.8015 11.0998 22.8513 10.9749 22.8797 11.1701C22.9117 11.3029 22.8442 11.3888 22.8264 11.3146C22.3997 11.2482 20.8744 12.3492 21.8309 12.8607Z" fill="#FDC500"/>
<path id="path19" fill-rule="evenodd" clip-rule="evenodd" d="M9.01689 7.9492C9.51111 8.14442 9.81689 7.9492 9.632 8.49191C9.53047 8.60611 9.40972 8.69761 9.27644 8.76131C8.86045 8.97995 9.00978 8.72617 8.50489 8.81987H8.43022C8.15644 8.89015 8.07467 9.04242 8.00356 9.04242C7.72113 9.23143 7.45247 9.44421 7.2 9.67883C7.456 10.163 7.05778 10.1122 6.87644 10.5261C6.83428 10.6191 6.78678 10.7091 6.73422 10.7955C6.54578 10.7642 6.41778 10.6471 6.22578 10.8345C6.18678 10.8665 6.15512 10.908 6.13331 10.9558C6.1115 11.0036 6.10015 11.0563 6.10015 11.1098C6.10015 11.1632 6.1115 11.2159 6.13331 11.2637C6.15512 11.3115 6.18678 11.353 6.22578 11.385L5.67467 11.5334C5.58578 11.7013 5.64622 11.6622 5.58933 11.8067C5.46844 11.713 5.58933 11.7169 5.36178 11.7325C4.92444 11.7598 5.00622 12.2088 5.00622 12.4665C4.81903 12.5344 4.61585 12.5261 4.43378 12.4431C3.68711 11.9824 4.27378 12.896 3.24622 11.9668C2.99378 11.7325 2.97956 11.8028 2.76622 11.4592C2.57778 11.4592 2.65244 11.4592 2.50667 11.4045C2.4649 11.3802 2.42797 11.3469 2.39806 11.3067C2.36814 11.2665 2.34584 11.2201 2.33244 11.1703C2.31497 11.121 2.30187 11.07 2.29333 11.018C2.05156 9.95213 1.61067 10.7642 1.58222 10.2371C1.58883 10.1565 1.60682 10.0775 1.63556 10.0029C1.72444 9.835 1.76356 9.91309 1.89156 9.73349C2.01956 9.55389 1.61422 9.53046 1.36533 9.6554C1.11644 9.78034 0.654222 9.6554 0.380444 9.68663L0.156444 9.37038C0 9.18297 0.0888889 9.21421 0 9.01118C0.426667 8.67931 0.0426667 8.4841 0.0284444 8.46458L0.248889 8.3045H0.277333C0.286933 8.29316 0.299261 8.28504 0.312889 8.28107C0.885168 8.0531 1.44034 7.77635 1.97333 7.45335C2.11593 7.37807 2.26328 7.31413 2.41422 7.26204L3.27467 6.8716C3.38133 6.82085 3.65156 6.74276 3.71911 6.692C3.89333 6.58659 3.85778 6.47726 4.01422 6.34452C4.17067 6.21177 4.22044 6.25081 4.45511 6.1493L4.64 6.0556L6.12267 5.35281C6.25422 5.27473 6.38222 5.22397 6.64178 5.0717C7.11212 4.82533 7.59398 4.60639 8.08533 4.41577C8.128 4.97409 8.44089 4.94286 8.84622 4.76716C9.25156 4.59147 9.13422 4.72812 9.29422 4.89991L9.35822 4.97019H9.39378L9.6 5.07561C10.4 5.427 9.80978 5.11465 10.3289 5.55584C10.848 5.99703 10.7698 5.77839 11.0684 5.86428L10.9582 6.02826C11.2818 6.00093 11.5307 6.05169 11.6018 6.39137C11.6474 6.34735 11.7052 6.32149 11.7658 6.31795C11.8264 6.31441 11.8864 6.33339 11.936 6.37185L11.9609 6.72324C11.8675 6.74 11.7789 6.78004 11.7019 6.84028C11.6249 6.90052 11.5614 6.97935 11.5164 7.07072L11.2569 7.4065C11.1787 7.58219 11.2569 7.44164 11.2569 7.44164C11.04 7.41431 10.8587 7.56658 10.6489 7.48459C10.592 7.65247 10.6489 7.66418 10.624 7.71104C10.4036 7.74227 10.4142 7.82426 10.208 7.79693C9.89903 7.6326 9.56519 7.53202 9.22311 7.5002C8.82133 7.46897 8.84267 7.87892 9.01689 7.9492Z" fill="#006EE5"/>
<path id="path21" fill-rule="evenodd" clip-rule="evenodd" d="M9.59988 10.6785C9.50388 10.8621 9.17321 10.8035 9.01677 10.7293C8.86032 10.6551 8.88521 10.5458 8.66121 10.4052C8.16344 10.1085 8.15632 10.2452 7.77588 10.5614C7.59099 10.7098 7.52699 10.6864 7.39188 10.866C7.3207 10.936 7.26894 11.0267 7.24255 11.1275C7.24255 11.1549 7.21055 11.2369 7.20343 11.2486C7.11099 11.4516 6.9901 11.4438 6.79455 11.7483C6.59899 12.0529 6.69499 11.8655 6.41055 12.0568C6.1261 12.2481 6.34655 12.1973 6.18655 12.4043C5.95543 12.7322 5.76343 12.4277 5.4541 12.9977C5.65677 13.4741 5.63188 13.0368 6.03721 13.3647L6.39988 13.7825C6.85855 13.7396 6.80166 13.5912 6.91188 13.4584L7.04343 13.3569C7.25677 13.1968 7.1501 13.2164 7.39899 13.1422C7.69766 12.4745 8.15277 12.9157 7.89321 13.3725C7.80077 13.5717 7.81855 13.6107 7.70121 13.763C7.32788 14.1534 7.60521 13.763 7.4061 14.3174C7.3421 14.5087 7.42388 14.2159 7.35632 14.4423C7.45232 14.5126 7.51988 14.536 7.61944 14.618C7.69113 14.6777 7.7567 14.7458 7.81499 14.8211C8.03188 15.067 7.81499 14.8679 8.04966 14.9733C8.28432 15.0787 8.11366 14.9733 8.24521 15.1685H8.32699C8.38032 14.9694 8.4621 14.903 8.70388 14.8757C8.94566 14.8484 8.89588 14.9304 9.08432 14.9187C9.08432 14.9187 9.11277 14.9187 9.10921 14.9187C9.21588 14.3525 8.88521 14.3955 9.21232 14.1378C9.37232 14.0129 9.36521 14.0714 9.46121 13.845C9.47601 13.7869 9.49627 13.7306 9.52166 13.6771L9.53943 13.638L9.6781 13.3374L10.0337 13.314C10.1048 13.4467 10.3643 13.4467 10.4994 13.4741C10.4994 14.0792 10.2292 13.9231 10.0052 14.3174L9.79899 14.618C9.56788 14.8562 9.62477 14.7195 9.47543 14.8835C9.57012 15.1771 9.70827 15.4515 9.88432 15.6956C10.1652 16.1173 9.9981 15.926 10.4461 15.8713C10.8941 15.8167 10.8408 16.1212 10.9048 16.2618C11.1422 16.4755 11.3969 16.665 11.6657 16.8279C12.0212 16.8279 12.103 16.4375 12.2772 16.2149C12.583 15.7893 12.7003 16.2149 13.0203 15.9572C14.1901 15.0748 13.1625 15.8089 13.8594 14.8952C13.9127 14.7982 13.987 14.7171 14.0757 14.6592C14.1644 14.6013 14.2648 14.5684 14.3679 14.5634C14.2434 13.9582 14.5634 14.1378 14.823 13.9738L15.0754 13.6615C15.431 13.6966 15.2568 13.7942 15.5341 13.7474C16.3234 13.599 15.7901 13.15 16.5403 13.1422C16.5148 13.0918 16.499 13.0363 16.4938 12.9789C16.4886 12.9216 16.4942 12.8637 16.5102 12.8088C16.5262 12.7539 16.5523 12.7032 16.5868 12.6598C16.6213 12.6164 16.6636 12.5813 16.711 12.5565C16.7246 12.5526 16.7369 12.5444 16.7465 12.5331L17.1625 12.4043C17.255 11.5024 17.6034 11.9279 17.6781 11.5648C17.6738 11.5509 17.6738 11.5358 17.6781 11.5219C17.735 11.2173 17.6319 11.2915 17.8559 10.9753C18.791 9.5619 19.1821 10.4521 19.5874 10.0304C19.7012 9.84302 19.7403 10.007 19.9714 9.72198C20.2025 9.43696 20.1599 9.60095 20.3483 9.4721C20.2893 9.30346 20.1984 9.15044 20.0817 9.0231C19.9999 8.46869 19.8683 8.95673 19.2319 8.53897C18.2754 7.90646 17.9661 7.68001 16.9634 8.35937C16.7821 8.4765 16.7394 8.35936 16.647 8.28518C15.5803 7.56288 14.9972 7.19978 14.3785 7.2232C13.2408 6.70002 13.1377 6.80544 12.3448 6.98894C12.1954 7.69953 12.3448 6.84058 11.4594 7.76981C11.3741 7.85961 11.4594 7.81666 11.3279 7.87132C10.9996 7.92424 10.6967 8.096 10.4674 8.35937C10.3963 8.42574 10.3572 8.46869 10.2648 8.55068C10.2648 8.55068 10.2434 8.57801 10.2328 8.58191C9.87721 8.91769 10.1261 8.79665 9.83455 8.97235L9.45766 9.23394C9.2301 9.36278 9.20521 9.23394 9.0701 9.51895C8.93499 9.80397 9.19455 9.58142 8.85321 9.73369C8.74739 9.7616 8.64296 9.79548 8.54032 9.83521C9.0701 10.1827 9.85232 10.21 9.59988 10.6785Z" fill="#FDC500"/>
</g>
</g>
</g>
</g>
<defs>
<clipPath id="clip0_1474_15450">
<rect width="32" height="18.7408" fill="white"/>
</clipPath>
</defs>
</svg>
