<svg width="20" height="20" viewBox="0 0 20 20" fill="#FFFFFF" xmlns="http://www.w3.org/2000/svg">
<path id="String-icon-search" d="M0 7.85714C0 8.57887 0.093006 9.27455 0.279018 9.9442C0.46503 10.6138 0.729167 11.2426 1.07143 11.8304C1.41369 12.4107 1.82292 12.939 2.29911 13.4152C2.7753 13.8914 3.30729 14.3006 3.89509 14.6429C4.47545 14.9851 5.10045 15.2493 5.77009 15.4353C6.43973 15.6213 7.13542 15.7143 7.85714 15.7143C8.77976 15.7143 9.67634 15.558 10.5469 15.2455C11.41 14.933 12.1912 14.4829 12.8906 13.8951L18.7835 19.7879C18.9249 19.9293 19.0923 20 19.2857 20C19.4792 20 19.6466 19.9293 19.7879 19.7879C19.9293 19.6466 20 19.4792 20 19.2857C20 19.0923 19.9293 18.9249 19.7879 18.7835L13.8951 12.8906C14.4829 12.1912 14.933 11.41 15.2455 10.5469C15.558 9.67634 15.7143 8.77976 15.7143 7.85714C15.7143 7.13542 15.6213 6.43973 15.4353 5.77009C15.2493 5.09301 14.9851 4.46429 14.6429 3.88393C14.3006 3.30357 13.8914 2.7753 13.4152 2.29911C12.939 1.82292 12.4107 1.41369 11.8304 1.07143C11.25 0.729167 10.625 0.46503 9.95536 0.279018C9.28571 0.093006 8.58631 0 7.85714 0C7.13542 0 6.43973 0.093006 5.77009 0.279018C5.10045 0.46503 4.47545 0.729167 3.89509 1.07143C3.30729 1.41369 2.7753 1.82292 2.29911 2.29911C1.82292 2.7753 1.41369 3.30729 1.07143 3.89509C0.729167 4.47545 0.46503 5.10045 0.279018 5.77009C0.093006 6.43973 0 7.13542 0 7.85714ZM1.42857 7.85714C1.42857 6.97173 1.5997 6.13839 1.94196 5.35714C2.27679 4.57589 2.73438 3.89509 3.31473 3.31473C3.89509 2.73438 4.57589 2.27679 5.35714 1.94196C6.13839 1.5997 6.97173 1.42857 7.85714 1.42857C8.74256 1.42857 9.57589 1.5997 10.3571 1.94196C11.1384 2.27679 11.8192 2.73438 12.3996 3.31473C12.9799 3.89509 13.4412 4.57589 13.7835 5.35714C14.1183 6.13839 14.2857 6.97173 14.2857 7.85714C14.2857 8.75 14.1183 9.58705 13.7835 10.3683C13.4487 11.1496 12.9911 11.8304 12.4107 12.4107C11.8304 12.9911 11.1496 13.4487 10.3683 13.7835C9.58705 14.1183 8.75 14.2857 7.85714 14.2857C6.96429 14.2857 6.12723 14.1183 5.34598 13.7835C4.56473 13.4487 3.88393 12.9911 3.30357 12.4107C2.72321 11.8304 2.26562 11.1496 1.9308 10.3683C1.59598 9.58705 1.42857 8.75 1.42857 7.85714Z" fill="#FFFFFF"/>
</svg>
