<svg width="14" height="14" viewBox="0 0 14 14" fill="none" xmlns="http://www.w3.org/2000/svg">
<g id="Sun">
<path id="Squircle" d="M4.12197 7.12289C4.10809 8.40608 4.32332 9.09936 4.71898 9.49502C5.11622 9.89227 5.81853 10.1133 7.1178 10.1133C8.41689 10.1133 9.11127 9.89231 9.50483 9.49618C9.89916 9.09927 10.1136 8.40404 10.1136 7.11748C10.1136 5.83093 9.89916 5.1357 9.50483 4.73879C9.11127 4.34265 8.41689 4.12168 7.1178 4.12168C5.81891 4.12168 5.13246 4.3426 4.74257 4.73763C4.34956 5.1358 4.13594 5.83295 4.12197 7.12289Z" fill="white" stroke="white" stroke-linecap="round" stroke-linejoin="round"/>
<path id="Vector 65" d="M7.11768 1.43677V2.31072" stroke="white" stroke-linecap="round"/>
<path id="Vector 66" d="M7.11768 11.9241V12.798" stroke="white" stroke-linecap="round"/>
<path id="Vector 67" d="M12.7983 7.11768L11.9244 7.11768" stroke="white" stroke-linecap="round"/>
<path id="Vector 68" d="M2.31104 7.11768L1.43709 7.11768" stroke="white" stroke-linecap="round"/>
<path id="Vector 69" d="M2.7478 2.7478L3.36578 3.36578" stroke="white" stroke-linecap="round"/>
<path id="Vector 71" d="M2.7478 11.6685L3.36578 11.0505" stroke="white" stroke-linecap="round"/>
<path id="Vector 70" d="M11.6685 2.7478L11.0505 3.36578" stroke="white" stroke-linecap="round"/>
<path id="Vector 72" d="M11.6685 11.6685L11.0505 11.0505" stroke="white" stroke-linecap="round"/>
</g>
</svg>
